/* XPM */
static char * telegram_xpm[] = {
"32 32 353 2",
"  	c None",
". 	c #33ACEA",
"+ 	c #35B3F3",
"@ 	c #35B4F4",
"# 	c #35B3F2",
"$ 	c #35B2F2",
"% 	c #33ADEB",
"& 	c #34B4F4",
"* 	c #32ADEC",
"= 	c #31A9E6",
"- 	c #31A8E5",
"; 	c #32ADEB",
"> 	c #34B3F4",
", 	c #33B3F4",
"' 	c #31AAE8",
") 	c #30A7E3",
"! 	c #30A7E4",
"~ 	c #30AAE7",
"{ 	c #31AFEF",
"] 	c #2FA6E2",
"^ 	c #31AFEE",
"/ 	c #2FACEC",
"( 	c #2DA4E0",
"_ 	c #2DA5E1",
": 	c #2FACEB",
"< 	c #2FADED",
"[ 	c #2CA2DF",
"} 	c #2CA3DF",
"| 	c #2EACEC",
"1 	c #2DACEC",
"2 	c #2AA2DE",
"3 	c #29A1DE",
"4 	c #239EDC",
"5 	c #1E9CDC",
"6 	c #29A1DD",
"7 	c #2BA2DE",
"8 	c #2AA1DD",
"9 	c #2DADED",
"0 	c #2AA5E3",
"a 	c #29A0DC",
"b 	c #249EDB",
"c 	c #1C9ADA",
"d 	c #53B2E3",
"e 	c #80C6EB",
"f 	c #33A5DF",
"g 	c #279FDC",
"h 	c #2AA4E1",
"i 	c #29A8E8",
"j 	c #279EDA",
"k 	c #259DDA",
"l 	c #1D9AD8",
"m 	c #1C99D8",
"n 	c #38A5DD",
"o 	c #79C3E8",
"p 	c #C8E5F6",
"q 	c #FBFCFE",
"r 	c #FDFCFD",
"s 	c #3EA2D5",
"t 	c #229CDA",
"u 	c #2AA8E9",
"v 	c #27A4E3",
"w 	c #259CD8",
"x 	c #1F99D7",
"y 	c #1896D6",
"z 	c #279DD8",
"A 	c #60B6E2",
"B 	c #ACD9F0",
"C 	c #EBF5FB",
"D 	c #FFFEFE",
"E 	c #FAFBFD",
"F 	c #FCFDFF",
"G 	c #D7EAF4",
"H 	c #1E89C0",
"I 	c #1E92CD",
"J 	c #269DD9",
"K 	c #27A3E1",
"L 	c #249DDA",
"M 	c #239AD6",
"N 	c #2099D6",
"O 	c #1895D4",
"P 	c #1C97D5",
"Q 	c #42A8DC",
"R 	c #8AC9E9",
"S 	c #D4EBF7",
"T 	c #FCFDFE",
"U 	c #FFFFFF",
"V 	c #EDF4F9",
"W 	c #DAE7F1",
"X 	c #EEF5FA",
"Y 	c #FEFFFF",
"Z 	c #B7D9EB",
"` 	c #1184BF",
" .	c #1A89C2",
"..	c #1F93CE",
"+.	c #239BD7",
"@.	c #239BD6",
"#.	c #249CD9",
"$.	c #229BD8",
"%.	c #2199D5",
"&.	c #2198D4",
"*.	c #2298D4",
"=.	c #2098D4",
"-.	c #1994D3",
";.	c #1593D2",
">.	c #2C9DD6",
",.	c #6BBAE2",
"'.	c #BADEF2",
").	c #EFF6FC",
"!.	c #FEFDFE",
"~.	c #F9FBFE",
"{.	c #F2F8FC",
"].	c #DAE7F2",
"^.	c #CFE0EE",
"/.	c #ECF4FA",
"(.	c #F2F8FD",
"_.	c #FEFEFF",
":.	c #91C5E1",
"<.	c #0C82BE",
"[.	c #1A8BC4",
"}.	c #1B8CC6",
"|.	c #219DDB",
"1.	c #2096D2",
"2.	c #2097D2",
"3.	c #1A94D1",
"4.	c #1C95D2",
"5.	c #51ADDC",
"6.	c #9CD0EB",
"7.	c #DDEEF8",
"8.	c #FAFCFD",
"9.	c #F9FBFD",
"0.	c #E6F0F8",
"a.	c #CADDEC",
"b.	c #CDDFED",
"c.	c #EEF5FB",
"d.	c #F1F7FC",
"e.	c #EFF6FB",
"f.	c #FBFDFE",
"g.	c #68B1D7",
"h.	c #0D83C0",
"i.	c #1A8BC5",
"j.	c #1B8DC7",
"k.	c #1C8EC9",
"l.	c #1E93CE",
"m.	c #2097D3",
"n.	c #229EDD",
"o.	c #1F9CDA",
"p.	c #1E95D0",
"q.	c #1792CF",
"r.	c #48A9D9",
"s.	c #D0E9F6",
"t.	c #F6FAFD",
"u.	c #F9FCFD",
"v.	c #F1F8FC",
"w.	c #EDF6FB",
"x.	c #EFF7FC",
"y.	c #ECF5FB",
"z.	c #D7E7F2",
"A.	c #C0D6E8",
"B.	c #D0E1EF",
"C.	c #EEF7FC",
"D.	c #EEF6FB",
"E.	c #419ECD",
"F.	c #1186C1",
"G.	c #198BC6",
"H.	c #1A8DC8",
"I.	c #1B8FC9",
"J.	c #1B90CB",
"K.	c #1D93CE",
"L.	c #209DDC",
"M.	c #1C93CE",
"N.	c #1790CD",
"O.	c #3EA3D5",
"P.	c #AFD7EC",
"Q.	c #E0EFF8",
"R.	c #F4FAFD",
"S.	c #EDF7FC",
"T.	c #E0EDF6",
"U.	c #C7DCEB",
"V.	c #BDD4E7",
"W.	c #D3E5F0",
"X.	c #ECF6FB",
"Y.	c #EBF6FB",
"Z.	c #D8ECF5",
"`.	c #238EC5",
" +	c #1588C3",
".+	c #188BC6",
"++	c #198DC7",
"@+	c #1A8FC9",
"#+	c #1B91CC",
"$+	c #1D9AD9",
"%+	c #1B96D4",
"&+	c #1A91CD",
"*+	c #1A91CC",
"=+	c #158ECB",
"-+	c #0F8BC9",
";+	c #2B98CF",
">+	c #64B3DA",
",+	c #B0D7EC",
"'+	c #D4E5F1",
")+	c #C0D6E9",
"!+	c #BFD5E8",
"~+	c #D5E5F2",
"{+	c #E9F4FA",
"]+	c #E8F4FA",
"^+	c #B3D9EC",
"/+	c #0F85C0",
"(+	c #1689C4",
"_+	c #188DC7",
":+	c #198EC9",
"<+	c #198FCA",
"[+	c #1A90CC",
"}+	c #1B98D6",
"|+	c #1890CC",
"1+	c #188FCA",
"2+	c #148DC9",
"3+	c #0B88C7",
"4+	c #1A8EC9",
"5+	c #AFCFE5",
"6+	c #C2D7E9",
"7+	c #D4E5F2",
"8+	c #ECF6FC",
"9+	c #E7F3FA",
"0+	c #E6F2FA",
"a+	c #F3F9FD",
"b+	c #82BFDE",
"c+	c #0981BF",
"d+	c #168BC5",
"e+	c #178CC7",
"f+	c #178DC8",
"g+	c #188ECA",
"h+	c #188FCB",
"i+	c #1990CC",
"j+	c #1791CE",
"k+	c #0D89C6",
"l+	c #84BDDD",
"m+	c #C5D9E9",
"n+	c #ADCADE",
"o+	c #D7E8F2",
"p+	c #EEF8FD",
"q+	c #E5F3F9",
"r+	c #E4F2F9",
"s+	c #E5F2F9",
"t+	c #EEF7FB",
"u+	c #4FA5D1",
"v+	c #0B83BF",
"w+	c #1589C4",
"x+	c #158AC5",
"y+	c #168BC6",
"z+	c #178CC8",
"A+	c #1694D3",
"B+	c #158BC6",
"C+	c #0C87C4",
"D+	c #4FA5D2",
"E+	c #C3D7E8",
"F+	c #9DBED5",
"G+	c #A1C1D7",
"H+	c #A7CDE3",
"I+	c #E7F4FB",
"J+	c #E2F1F9",
"K+	c #E5F3FA",
"L+	c #D9EDF7",
"M+	c #2891C6",
"N+	c #0F85C1",
"O+	c #1489C3",
"P+	c #148AC4",
"Q+	c #1693D2",
"R+	c #148CC8",
"S+	c #138AC5",
"T+	c #1389C4",
"U+	c #1088C3",
"V+	c #2391C8",
"W+	c #B2CFE4",
"X+	c #A5C2D8",
"Y+	c #519AC3",
"Z+	c #0476B1",
"`+	c #57A5CD",
" @	c #EBF6FC",
".@	c #E8F4FB",
"+@	c #B6DBED",
"@@	c #0E84BF",
"#@	c #1288C2",
"$@	c #148FCC",
"%@	c #1390CE",
"&@	c #1187C2",
"*@	c #1188C3",
"=@	c #0D86C2",
"-@	c #6BADD1",
";@	c #4795C0",
">@	c #0578B2",
",@	c #0C7DB6",
"'@	c #0178B4",
")@	c #2B8FC1",
"!@	c #B2D7EA",
"~@	c #FBFEFF",
"{@	c #86C2E0",
"]@	c #047FBC",
"^@	c #128FCC",
"/@	c #1089C4",
"(@	c #1086C1",
"_@	c #0F86C1",
":@	c #0C84BF",
"<@	c #087CB7",
"[@	c #0C7CB5",
"}@	c #0D7EB7",
"|@	c #0E7FB9",
"1@	c #067CB8",
"2@	c #1383BC",
"3@	c #68B1D6",
"4@	c #2B93C6",
"5@	c #0B82BE",
"6@	c #1086C0",
"7@	c #0F8DCB",
"8@	c #0F84BF",
"9@	c #0E85BF",
"0@	c #0D80B9",
"a@	c #0C7DB7",
"b@	c #0C7FB9",
"c@	c #0E81BA",
"d@	c #0B80BB",
"e@	c #017CB9",
"f@	c #0A81BC",
"g@	c #0E85C0",
"h@	c #0F8DCC",
"i@	c #0E8CCA",
"j@	c #0D84BF",
"k@	c #0D83BD",
"l@	c #0D83BE",
"m@	c #0C80BA",
"n@	c #0C7FB8",
"o@	c #0C81BB",
"p@	c #0D82BC",
"q@	c #0D82BD",
"r@	c #0E8CCB",
"s@	c #0C89C7",
"t@	c #0C85C0",
"u@	c #0C81BC",
"v@	c #0C82BC",
"w@	c #0B80BA",
"x@	c #0B80B9",
"y@	c #0C84C0",
"z@	c #0C89C8",
"A@	c #0B82BD",
"B@	c #0A80BB",
"C@	c #0A80BA",
"D@	c #0B88C6",
"E@	c #0A87C5",
"F@	c #0A85C2",
"G@	c #0A82BE",
"H@	c #0981BB",
"I@	c #0980BB",
"J@	c #0A82BD",
"K@	c #0A87C6",
"L@	c #097FBA",
"                                                                ",
"                                                                ",
"                        . + @ # $ @ + %                         ",
"                    & * = - - - - - - = ; >                     ",
"                , ' ) ! ! ! ! ! ! ! ! ! ! ) ~ ,                 ",
"              { ] ] ] ] ] ] ] ] ] ] ] ] ] ] ] ] ^               ",
"            / ( _ _ _ _ _ _ _ _ _ _ _ _ _ _ _ _ ( :             ",
"          < [ } } } } } } } } } } } } } } } } } } } |           ",
"        1 2 2 2 2 2 2 2 2 2 2 2 2 2 2 2 3 4 5 6 7 2 8 9         ",
"        0 a a a a a a a a a a a a a b c b d e f g a a h         ",
"      i j j j j j j j j j j j k l m n o p q r s t j j j u       ",
"      v w w w w w w w w w x y z A B C D E F G H I J w w K       ",
"      L M M M M M M N O P Q R S T U V W X Y Z `  ...+.@.#.      ",
"    $.%.&.&.*.=.-.;.>.,.'.).!.~.{.].^./.(._.:.<.[.}...%.%.4     ",
"    |.1.1.2.3.4.5.6.7.8.9.{.{.0.a.b.c.d.e.f.g.h.i.j.k.l.m.n.    ",
"    o.p.p.q.r.s.t.u.v.w.x.y.z.A.B.w.C.w.D.x.E.F.G.H.I.J.K.L.    ",
"    l M.M.N.O.P.Q.t.R.S.T.U.V.W.X.Y.C C x.Z.`. +.+++@+J.#+$+    ",
"    %+&+*+#+=+-+;+>+,+'+)+!+~+C {+]+]+]+v.^+/+(+.+_+:+<+[+}+    ",
"      |+1+1+1+1+2+3+4+5+6+7+8+9+0+9+9+0+a+b+c+(+d+e+f+g+h+i+    ",
"      j+f+f+f+f+f+f+k+l+m+n+o+p+q+r+r+s+t+u+v+w+x+y+z+f+N.      ",
"      A+B+B+B+B+B+B+C+D+E+F+G+H+I+I+J+K+L+M+N+O+P+B+B+B+Q+      ",
"      R+S+T+T+T+T+T+U+V+W+X+Y+Z+`+Z. @.@+@@@F.#@T+T+T+S+$@      ",
"        %@&@*@*@*@*@*@=@-@;@>@,@'@)@!@~@{@]@F.&@*@*@&@^@        ",
"          /@(@(@(@(@(@_@:@<@[@}@|@1@2@3@4@5@6@(@(@(@U+          ",
"          7@/+@@@@@@@@8@9@9@0@a@b@c@d@e@f@8@9@@@@@g@h@          ",
"            i@j@k@k@k@k@k@l@l@m@n@m@o@p@q@l@k@k@l@r@            ",
"              s@t@u@v@v@v@v@v@v@w@x@o@u@v@v@u@y@z@              ",
"                  3+A@B@B@B@B@B@B@C@C@B@B@A@D@                  ",
"                      E@F@G@H@I@I@H@J@F@K@                      ",
"                              L@L@                              ",
"                                                                ",
"                                                                "};
